<svg fill="#000000" xmlns="http://www.w3.org/2000/svg"  viewBox="0 0 48 48" width="48px" height="48px"><path d="M 15.173828 2.609375 C 11.917119 2.5264688 8.94875 4.7335781 8.1875 8.0332031 L 7.078125 12.837891 C 10.172125 7.7938906 15.497719 4.4664844 21.386719 3.8964844 L 16.582031 2.7871094 C 16.110656 2.6782344 15.639072 2.6212187 15.173828 2.609375 z M 23.615234 7 C 16.369702 7.1611924 9.7609531 11.980828 7.6582031 19.314453 C 5.0702031 28.340453 10.289453 37.753797 19.314453 40.341797 C 28.339453 42.929797 37.753797 37.711547 40.341797 28.685547 C 42.929797 19.659547 37.711547 10.246203 28.685547 7.6582031 C 26.993172 7.1729531 25.28728 6.9628018 23.615234 7 z M 35.162109 7.078125 C 40.206109 10.172125 43.533516 15.497719 44.103516 21.386719 L 45.212891 16.582031 C 46.083891 12.811031 43.737797 9.0575 39.966797 8.1875 L 35.162109 7.078125 z M 20.191406 12.589844 C 20.456244 12.610334 20.723031 12.658375 20.988281 12.734375 C 23.111281 13.342375 24.338469 15.556687 23.730469 17.679688 C 23.122469 19.802687 20.906203 21.029875 18.783203 20.421875 C 16.660203 19.813875 15.433969 17.599562 16.042969 15.476562 C 16.575844 13.618937 18.337541 12.446412 20.191406 12.589844 z M 31.726562 15.898438 C 31.991494 15.918996 32.258063 15.966844 32.523438 16.042969 C 34.646437 16.650969 35.874625 18.865281 35.265625 20.988281 C 34.657625 23.110281 32.441359 24.338469 30.318359 23.730469 C 28.195359 23.122469 26.968172 20.908156 27.576172 18.785156 C 28.108172 16.927531 29.872041 15.754527 31.726562 15.898438 z M 24.035156 22.001953 C 25.139156 22.020953 26.017047 22.930156 25.998047 24.035156 C 25.979047 25.139156 25.069844 26.017047 23.964844 25.998047 C 22.860844 25.979047 21.982953 25.069844 22.001953 23.964844 C 22.020953 22.860844 22.930156 21.982953 24.035156 22.001953 z M 16.884766 24.126953 C 17.149697 24.147443 17.416266 24.193531 17.681641 24.269531 C 19.804641 24.877531 21.032828 27.093797 20.423828 29.216797 C 19.814828 31.339797 17.598563 32.566031 15.476562 31.957031 C 13.353562 31.349031 12.125375 29.134719 12.734375 27.011719 C 13.266375 25.154094 15.030244 23.983521 16.884766 24.126953 z M 3.8964844 26.615234 L 2.7871094 31.419922 C 1.9171094 35.190922 4.2622031 38.943453 8.0332031 39.814453 L 12.837891 40.923828 C 7.7948906 37.829828 4.4664844 32.504234 3.8964844 26.615234 z M 28.417969 27.433594 C 28.6829 27.454084 28.951422 27.502125 29.216797 27.578125 C 31.339797 28.186125 32.566031 30.400437 31.957031 32.523438 C 31.348031 34.646437 29.134719 35.873625 27.011719 35.265625 C 24.888719 34.657625 23.661531 32.443313 24.269531 30.320312 C 24.801531 28.462687 26.563447 27.290162 28.417969 27.433594 z M 40.923828 35.162109 C 37.829828 40.205109 32.504234 43.533516 26.615234 44.103516 L 31.419922 45.212891 C 35.190922 46.082891 38.943453 43.737797 39.814453 39.966797 L 40.923828 35.162109 z"/></svg>